<svg width="12" height="15" fill="none" xmlns="http://www.w3.org/2000/svg"><path d="M6 15a25.167 25.167 0 01-3-2.942c-1.371-1.592-3-3.963-3-6.223 0-1.154.351-2.282 1.01-3.242A5.967 5.967 0 013.704.444 6.16 6.16 0 017.172.112a6.055 6.055 0 013.073 1.598 5.786 5.786 0 011.302 1.892A5.65 5.65 0 0112 5.835c0 2.26-1.629 4.63-3 6.223A25.168 25.168 0 016 15zM6 3.336a2.61 2.61 0 00-1.818.732 2.465 2.465 0 00-.753 1.767c0 .663.27 1.299.753 1.768A2.61 2.61 0 006 8.335a2.61 2.61 0 001.818-.732 2.465 2.465 0 00.753-1.768c0-.663-.27-1.299-.753-1.767A2.61 2.61 0 006 3.336z" fill="#08A6BB"/></svg>