<svg width="40" height="40" fill="none" xmlns="http://www.w3.org/2000/svg"><g clip-path="url(#clip0_53_24)"><path d="M0 20C0 8.954 8.954 0 20 0s20 8.954 20 20-8.954 20-20 20S0 31.046 0 20z" fill="url(#paint0_linear_53_24)"/><path fill-rule="evenodd" clip-rule="evenodd" d="M43.21 23.098s-5.672-3.591-9.956-3.591c-5.667 0-9.457 4.897-14.04 4.897-5.344 0-6.016-1.415-9.012-1.415-4.235 0-9.823 2.654-12.77 1.696-2.38-.773-5.243-2.334-5.243-2.334V35.46l51.022.788v-13.15z" fill="url(#paint1_linear_53_24)"/><path fill-rule="evenodd" clip-rule="evenodd" d="M-6.97 31.856s.259-8.247 6.123-9.537c5.126-.766 9.079 5.186 13.663 5.186 5.343 0 7.861-3.455 13.048-3.455 3.784 0 7.478 3.003 12.63 1.962 11.444-2.312 5.558-2.708 5.558-2.708v13.108L-6.97 37.2v-5.344z" fill="url(#paint2_linear_53_24)"/><path fill-rule="evenodd" clip-rule="evenodd" d="M-1.461 32.383S1 29.073 2.932 28.74c1.932-.333 3 2.892 3 2.892s.905-.141 1.396 0c.492.141.88.75.88.75s.626-1.944 3.224-1.944c2.598 0 3.918 2.626 3.918 2.626s.865-.682 1.766-.682c.9 0 1.92.682 1.92.682s.636-2.626 3.32-2.626c2.685 0 3.83 2.228 3.83 2.228s1.084-.684 2.138-.684c1.054 0 2.311.684 2.311.684s.353-2.161 1.923-3.435 4.988-.49 4.988-.49l1.87.983V40H-1.462v-7.617z" fill="url(#paint3_linear_53_24)"/><circle cx="24.762" cy="9.524" fill="#FEFFCA" r="3.333"/></g><defs><linearGradient id="paint0_linear_53_24" x1="0" y1="0" x2="0" y2="40" gradientUnits="userSpaceOnUse"><stop stop-color="#A2E9FF"/><stop offset=".552" stop-color="#DDFDFF"/></linearGradient><linearGradient id="paint1_linear_53_24" x1="43.211" y1="19.507" x2="43.211" y2="36.247" gradientUnits="userSpaceOnUse"><stop stop-color="#AAF3FA"/><stop offset="1" stop-color="#D5FAFD"/></linearGradient><linearGradient id="paint2_linear_53_24" x1="-6.97" y1="22.251" x2="-6.97" y2="37.2" gradientUnits="userSpaceOnUse"><stop stop-color="#7EDEE7"/><stop offset="1" stop-color="#B5F1F5"/></linearGradient><linearGradient id="paint3_linear_53_24" x1="-1.461" y1="28.443" x2="-1.461" y2="40" gradientUnits="userSpaceOnUse"><stop stop-color="#4297A8"/><stop offset="1" stop-color="#77C8D3"/></linearGradient><clipPath id="clip0_53_24"><path d="M0 20C0 8.954 8.954 0 20 0s20 8.954 20 20-8.954 20-20 20S0 31.046 0 20z" fill="#fff"/></clipPath></defs></svg>