<svg width="18" height="18" fill="none" xmlns="http://www.w3.org/2000/svg"><path fill-rule="evenodd" clip-rule="evenodd" d="M3.196.52c.661-.663 1.802-.736 2.472.037L8.415 3.73a.81.81 0 01.02.022c.605.699.481 1.707-.12 2.312h-.002l-.877.879a11.09 11.09 0 003.609 3.614l.879-.88c.602-.604 1.607-.729 2.305-.13l3.207 2.753c.78.67.707 1.815.044 2.479l-2.297 2.3c-.901.903-2.278 1.197-3.427.639A24.712 24.712 0 01.283 6.227C-.274 5.078.019 3.702.92 2.8m0 0L3.196.52m7.6 10.286l.006-.007-.007.007zm-3.61-3.615l.008-.008a.41.41 0 01-.007.008zm.008-2.375zm.001.003L4.438 1.636h-.004a.12.12 0 00-.08.04l-2.276 2.28c-.454.454-.549 1.092-.323 1.558l.001.001a23.076 23.076 0 0010.714 10.73c.465.225 1.101.131 1.555-.322l2.297-2.302a.124.124 0 00.04-.087l-3.194-2.742h-.009a.125.125 0 00-.077.04l-1.111 1.112a1.196 1.196 0 01-1.435.213l-.01-.005A12.728 12.728 0 015.83 7.44a1.197 1.197 0 01.219-1.424l1.106-1.108c.03-.03.04-.06.041-.08a.06.06 0 000-.009zm5.976 5.973h-.001zm-.008-.005z" fill="#08A6BB"/></svg>