<svg width="42" height="42" fill="none" xmlns="http://www.w3.org/2000/svg"><rect width="42" height="42" rx="8" fill="#08A6BB"/><path d="M19.264 29.526c2.277 0 4.488-.763 6.282-2.166l5.64 5.64L33 31.186l-5.64-5.64a10.202 10.202 0 002.167-6.283C29.527 13.604 24.923 9 19.263 9 13.605 9 9 13.604 9 19.263s4.604 10.263 10.264 10.263zm0-17.96c4.245 0 7.697 3.452 7.697 7.697s-3.452 7.697-7.697 7.697c-4.246 0-7.698-3.452-7.698-7.697s3.452-7.697 7.697-7.697z" fill="#fff"/><path d="M21.258 16.782c.56.563.869 1.308.869 2.098h2.953a5.927 5.927 0 00-1.734-4.197c-2.235-2.244-6.112-2.244-8.346 0l2.085 2.102c1.122-1.126 3.057-1.123 4.173-.003z" fill="#fff"/></svg>