<svg width="22" height="18" fill="none" xmlns="http://www.w3.org/2000/svg"><path fill-rule="evenodd" clip-rule="evenodd" d="M.967.989A3.263 3.263 0 013.3 0h15.4c.875 0 1.715.356 2.334.989.618.632.966 1.49.966 2.386V6.75c0 .298-.116.585-.322.795a1.09 1.09 0 01-.778.33c-.292 0-.572.119-.778.33A1.138 1.138 0 0019.8 9c0 .298.116.585.322.796.206.21.486.329.778.329.608 0 1.1.504 1.1 1.125v3.375a3.42 3.42 0 01-.966 2.387A3.264 3.264 0 0118.7 18H3.3a3.263 3.263 0 01-2.333-.988A3.414 3.414 0 010 14.625V11.25c0-.621.492-1.125 1.1-1.125.292 0 .572-.118.778-.33a1.141 1.141 0 000-1.591 1.088 1.088 0 00-.778-.329C.492 7.875 0 7.371 0 6.75V3.375C0 2.48.348 1.621.967.989zM15.4 15.75v-1.125c0-.621-.492-1.125-1.1-1.125-.607 0-1.1.504-1.1 1.125v1.125H3.3c-.292 0-.572-.118-.778-.33a1.138 1.138 0 01-.322-.795v-2.443a3.29 3.29 0 001.233-.796A3.414 3.414 0 004.4 9c0-.895-.348-1.754-.967-2.386A3.29 3.29 0 002.2 5.818V3.375c0-.298.116-.585.322-.796A1.09 1.09 0 013.3 2.25h9.9v1.125c0 .621.493 1.125 1.1 1.125.607 0 1.1-.504 1.1-1.125V2.25h3.3c.292 0 .572.119.778.33.206.21.322.497.322.795v2.443c-.46.166-.882.436-1.233.796A3.415 3.415 0 0017.6 9c0 .895.348 1.754.966 2.386.352.36.774.63 1.234.796v2.443c0 .298-.116.585-.322.796-.207.21-.486.329-.778.329h-3.3zm-1.1-9c.607 0 1.1.504 1.1 1.125v2.25c0 .621-.492 1.125-1.1 1.125-.607 0-1.1-.504-1.1-1.125v-2.25c0-.621.493-1.125 1.1-1.125z" fill="#08A6BB"/></svg>